<svg width="159" height="195" viewBox="0 0 159 195" fill="none" xmlns="http://www.w3.org/2000/svg">
<path d="M79.5 73.1901V0.630615L159 57.4163V131.869L79.5 73.1901Z" fill="#2A9D8F"/>
<path d="M79.5 73.1905V0L0 51.7381V131.869L79.5 73.1905Z" fill="#1B7E72"/>
<path d="M79.5 72.5596L0 131.869L78.2381 194.333L159 131.869L79.5 72.5596Z" fill="#1D1E1C"/>
<path d="M94.6428 135.655V160.262L90.8571 162.155V138.178L94.6428 135.655Z" fill="#FFFCEE"/>
<path d="M42.9047 92.7498V117.357L39.119 119.25V95.2736L42.9047 92.7498Z" fill="#FFFCEE"/>
<path d="M118.619 117.988V142.595L114.833 144.488V120.511L118.619 117.988Z" fill="#FFFCEE"/>
<path d="M87.0714 135.655V160.262L90.8571 162.155V138.178L87.0714 135.655Z" fill="#F6F1D9"/>
<path d="M35.3333 92.7498V117.357L39.119 119.25V95.2736L35.3333 92.7498Z" fill="#F6F1D9"/>
<path d="M111.048 117.988V142.595L114.833 144.488V120.511L111.048 117.988Z" fill="#F6F1D9"/>
<path d="M60.5855 69.7404L33.1057 88.1589L90.9372 134.045L119.083 113.746L60.5855 69.7404Z" fill="#FFFCEE"/>
<path d="M90.9374 134.045L33.1059 88.1592L33.0116 93.2059L90.8431 139.092L90.9374 134.045Z" fill="#DBD6BD"/>
<path d="M119.083 113.746L90.9374 134.045L90.8431 139.092L119.001 118.162L119.083 113.746Z" fill="#F6F1D9"/>
<path d="M94.6428 33.4399V56.7852L134.393 87.7019V63.7257L94.6428 33.4399Z" fill="#1B7E72"/>
</svg>
