<svg width="177" height="64" viewBox="0 0 177 64" fill="none" xmlns="http://www.w3.org/2000/svg">
<path d="M45.0528 64H38.7292V60.8258H45.0528C56.1042 60.8258 65.1069 51.7595 65.1069 40.6299V23.39C65.1069 12.2604 56.1042 3.19405 45.0528 3.19405H38.7292V0H45.0528C57.8575 0 68.2588 10.4749 68.2588 23.3701V40.61C68.2588 53.5053 57.8575 63.9802 45.0528 63.9802V64Z" fill="#014F59"/>
<path d="M40.3248 64H37.1729V62.4129C37.1729 56.6993 35.7545 51.5214 32.9375 47.0577L34.7696 44.0223L35.6166 45.3714C38.7489 50.3707 40.3248 56.1042 40.3248 62.4327V64.0198V64Z" fill="#014F59"/>
<path d="M29.9629 43.0502L28.84 41.9393C22.6741 35.7694 15.1883 33.5474 15.1095 33.5276L15.0701 30.4923C22.8514 28.0124 28.7415 23.4495 32.5829 16.9225L33.3906 15.5536L35.3015 18.5493C31.7161 24.6001 26.5746 29.1234 19.9555 32.0397C22.9499 33.4284 27.1853 35.8487 31.0464 39.6975L31.7555 40.4117C30.9873 41.1655 30.3766 42.0583 29.9432 43.0502H29.9629Z" fill="#014F59"/>
<path d="M37.9019 13.1333C36.9564 12.0818 36.2866 10.8122 35.9517 9.42344L35.8926 9.18537C37.1336 4.86051 37.1533 1.62678 37.1533 1.5871V0H40.3053V1.5871C40.3053 1.72598 40.3053 5.27712 38.9263 10.0583L37.9019 13.1333Z" fill="#014F59"/>
<path d="M29.5295 64H23.206C10.4013 64 0 53.5251 0 40.6299V23.39C0 10.4749 10.4013 0 23.206 0H29.5295V3.17421H23.206C12.1546 3.17421 3.15192 12.2405 3.15192 23.3701V40.61C3.15192 51.7396 12.1546 60.806 23.206 60.806H29.5295V63.9802V64Z" fill="#014F59"/>
<path d="M31.1055 64H27.9536V62.4129C27.9536 62.2542 27.9536 58.6237 29.3917 53.7433C30.2585 50.7874 31.4601 48.0099 32.9573 45.4706C36.5426 39.4197 41.6842 34.8965 48.3032 31.9802C46.0575 30.9287 43.1025 29.3218 40.1476 26.9411C34.5923 22.4972 27.9536 14.4823 27.9536 1.5871V0H31.1055V1.5871C31.1055 10.9113 34.809 18.6088 42.0979 24.4414C47.594 28.8258 53.0902 30.4526 53.1493 30.4526L53.1887 33.4879C45.4074 35.9678 39.5172 40.5307 35.6758 47.0577C34.3166 49.3788 33.2134 51.9182 32.4254 54.6162C31.1449 59.0205 31.1055 62.3534 31.1055 62.3931V63.9802V64Z" fill="#014F59"/>
<path d="M101.432 22.4178C101.255 23.9653 100.703 25.2945 99.7972 26.4054C98.891 27.4966 97.6499 28.3496 96.0937 28.925C94.5374 29.5003 92.6659 29.7979 90.5187 29.7979C88.7063 29.7979 87.0713 29.5797 85.5741 29.163C84.077 28.7464 82.7965 28.1116 81.713 27.2783C80.6296 26.4451 79.8022 25.3937 79.2112 24.1438C78.6202 22.894 78.3247 21.4457 78.3247 19.7594C78.3247 18.0731 78.6202 16.6249 79.2112 15.3552C79.8022 14.0855 80.6493 13.0539 81.713 12.2009C82.7965 11.3478 84.077 10.7129 85.5741 10.2765C87.0713 9.84003 88.726 9.64165 90.5187 9.64165C92.6856 9.64165 94.5374 9.93923 96.1134 10.5344C97.6893 11.1296 98.9304 11.9826 99.8366 13.0936C100.743 14.2046 101.275 15.5338 101.432 17.1209H97.512C97.2559 16.2876 96.8225 15.5536 96.2119 14.9584C95.6012 14.3434 94.8329 13.8872 93.8873 13.5697C92.9417 13.2523 91.7992 13.0936 90.499 13.0936C88.8639 13.0936 87.4456 13.3515 86.2242 13.8475C85.0028 14.3633 84.0376 15.0973 83.3678 16.0893C82.698 17.0812 82.3631 18.2914 82.3631 19.7594C82.3631 21.2275 82.698 22.398 83.3678 23.3899C84.0376 24.3819 84.9831 25.1159 86.2242 25.6119C87.4456 26.1277 88.8836 26.3658 90.499 26.3658C91.7992 26.3658 92.922 26.2071 93.8676 25.8896C94.8132 25.5722 95.5815 25.1159 96.1922 24.5208C96.8028 23.9256 97.2362 23.2312 97.512 22.4178H101.432Z" fill="#014F59"/>
<path d="M116.719 29.778C114.158 29.778 111.971 29.3813 110.159 28.5679C108.347 27.7545 106.968 26.6038 106.003 25.1159C105.037 23.628 104.564 21.8227 104.564 19.7396C104.564 17.6565 105.037 15.8115 106.003 14.3236C106.968 12.8357 108.347 11.685 110.159 10.8717C111.971 10.0583 114.158 9.66148 116.719 9.66148V13.0936C115.163 13.0936 113.764 13.3317 112.523 13.8276C111.302 14.3236 110.336 15.0576 109.647 16.0297C108.957 17.0018 108.603 18.2517 108.603 19.7396C108.603 21.2275 108.957 22.4774 109.647 23.4495C110.336 24.4216 111.302 25.1556 112.523 25.6317C113.744 26.1079 115.143 26.3459 116.719 26.3459V29.778Z" fill="#014F59"/>
<path d="M142.604 9.64165C145.165 9.64165 147.352 10.0384 149.164 10.8518C150.977 11.6652 152.356 12.8159 153.321 14.3038C154.286 15.7917 154.759 17.597 154.759 19.6801C154.759 21.7632 154.286 23.6082 153.321 25.0961C152.356 26.584 150.977 27.7346 149.164 28.548C147.352 29.3614 145.165 29.7582 142.604 29.7582V26.3261C144.161 26.3261 145.559 26.088 146.8 25.592C148.022 25.0961 148.987 24.362 149.676 23.3899C150.366 22.4178 150.72 21.168 150.72 19.6801C150.72 18.1922 150.366 16.9423 149.676 15.9702C148.987 14.9981 148.022 14.2641 146.8 13.788C145.579 13.3118 144.18 13.0738 142.604 13.0738V9.64165Z" fill="#014F59"/>
<path d="M90.44 53.5846C87.8791 53.5846 85.6924 53.1878 83.8801 52.3744C82.0677 51.5611 80.6887 50.4104 79.7235 48.9225C78.7582 47.4346 78.2854 45.6293 78.2854 43.5462C78.2854 41.4631 78.7582 39.6181 79.7235 38.1302C80.6887 36.6423 82.0677 35.4916 83.8801 34.6782C85.6924 33.8648 87.8791 33.4681 90.44 33.4681C93.0009 33.4681 95.2073 33.8648 96.9999 34.6782C98.7926 35.4916 100.191 36.6423 101.137 38.1302C102.082 39.6181 102.575 41.4234 102.575 43.5462C102.575 45.6689 102.102 47.4346 101.137 48.9225C100.172 50.4104 98.7926 51.5611 96.9999 52.3744C95.2073 53.1878 93.0009 53.5846 90.44 53.5846ZM90.44 50.1327C92.0159 50.1327 93.4146 49.8946 94.6163 49.4185C95.818 48.9423 96.7635 48.2083 97.4333 47.2362C98.1031 46.2641 98.4577 45.0142 98.4577 43.5263C98.4577 42.0384 98.1228 40.7886 97.4333 39.8165C96.7438 38.8444 95.7983 38.1103 94.6163 37.6144C93.4146 37.1184 92.0159 36.8803 90.44 36.8803C88.864 36.8803 87.4851 37.1184 86.244 37.6144C85.0226 38.1103 84.0574 38.8444 83.3679 39.8165C82.6784 40.7886 82.3238 42.0384 82.3238 43.5263C82.3238 45.0142 82.6784 46.2641 83.3679 47.2362C84.0574 48.2083 85.0226 48.9423 86.244 49.4185C87.4654 49.8946 88.864 50.1327 90.44 50.1327Z" fill="#014F59"/>
<path d="M104.663 53.1878L113.685 33.8251H117.96L127.081 53.1878H122.767L114.867 35.7495H116.759L108.918 53.1878H104.643H104.663ZM109.45 48.9622V45.6491H122.176V48.9622H109.45Z" fill="#014F59"/>
<path d="M128.342 46.6609H132.36C132.439 47.3354 132.754 47.9504 133.286 48.5059C133.838 49.0614 134.547 49.478 135.434 49.7954C136.32 50.1128 137.325 50.2517 138.428 50.2517C139.433 50.2517 140.26 50.1327 140.93 49.9144C141.58 49.6962 142.072 49.3788 142.388 48.982C142.703 48.5852 142.86 48.1091 142.86 47.5536C142.86 46.9981 142.663 46.6013 142.269 46.3038C141.875 46.0062 141.245 45.7681 140.398 45.5896C139.551 45.3912 138.428 45.2126 137.049 45.0142C135.965 44.8555 134.921 44.6373 133.956 44.3397C132.991 44.0421 132.124 43.685 131.395 43.2089C130.666 42.7328 130.075 42.1773 129.642 41.5226C129.209 40.8481 129.012 40.0545 129.012 39.142C129.012 38.0111 129.327 36.9994 129.977 36.1463C130.627 35.2932 131.573 34.6187 132.853 34.1426C134.133 33.6664 135.67 33.4284 137.522 33.4284C140.299 33.4284 142.427 34.0235 143.924 35.2139C145.421 36.4042 146.15 38.031 146.111 40.1141H142.25C142.171 38.9436 141.678 38.0905 140.772 37.5747C139.866 37.0589 138.743 36.801 137.364 36.801C136.103 36.801 135.059 36.9994 134.232 37.3763C133.405 37.7532 132.991 38.4079 132.991 39.3205C132.991 39.6776 133.089 39.995 133.286 40.2728C133.483 40.5505 133.818 40.7687 134.291 40.9671C134.764 41.1655 135.414 41.3639 136.222 41.5424C137.029 41.721 138.034 41.8995 139.255 42.0781C140.378 42.2368 141.403 42.455 142.328 42.7129C143.254 42.9708 144.042 43.3279 144.712 43.7644C145.382 44.2008 145.894 44.7365 146.249 45.3912C146.603 46.0459 146.781 46.8593 146.781 47.8115C146.781 48.982 146.485 50.0136 145.874 50.8865C145.264 51.7594 144.338 52.434 143.077 52.9101C141.816 53.3862 140.201 53.6243 138.192 53.6243C136.773 53.6243 135.512 53.4656 134.409 53.168C133.326 52.8506 132.38 52.4538 131.592 51.9181C130.804 51.4023 130.154 50.827 129.662 50.212C129.169 49.597 128.815 48.982 128.598 48.3472C128.381 47.7322 128.302 47.1767 128.342 46.6807V46.6609Z" fill="#014F59"/>
<path d="M150.799 33.8251H154.759V53.1878H150.799V33.8251Z" fill="#014F59"/>
<path d="M158.581 46.6609H162.599C162.678 47.3354 162.993 47.9504 163.525 48.5059C164.077 49.0614 164.786 49.478 165.672 49.7954C166.559 50.1128 167.564 50.2517 168.667 50.2517C169.671 50.2517 170.499 50.1327 171.169 49.9144C171.819 49.6962 172.311 49.3788 172.626 48.982C172.941 48.5852 173.099 48.1091 173.099 47.5536C173.099 46.9981 172.902 46.6013 172.508 46.3038C172.114 46.0062 171.484 45.7681 170.637 45.5896C169.79 45.3912 168.667 45.2126 167.288 45.0142C166.204 44.8555 165.16 44.6373 164.195 44.3397C163.23 44.0421 162.363 43.685 161.634 43.2089C160.905 42.7328 160.314 42.1773 159.881 41.5226C159.447 40.8481 159.25 40.0545 159.25 39.142C159.25 38.0111 159.566 36.9994 160.216 36.1463C160.866 35.2932 161.811 34.6187 163.092 34.1426C164.372 33.6664 165.909 33.4284 167.761 33.4284C170.538 33.4284 172.666 34.0235 174.163 35.2139C175.66 36.4042 176.389 38.031 176.35 40.1141H172.488C172.41 38.9436 171.917 38.0905 171.011 37.5747C170.105 37.0589 168.982 36.801 167.603 36.801C166.342 36.801 165.298 36.9994 164.471 37.3763C163.643 37.7532 163.23 38.4079 163.23 39.3205C163.23 39.6776 163.328 39.995 163.525 40.2728C163.722 40.5505 164.057 40.7687 164.53 40.9671C165.003 41.1655 165.653 41.3639 166.46 41.5424C167.268 41.721 168.273 41.8995 169.494 42.0781C170.617 42.2368 171.641 42.455 172.567 42.7129C173.493 42.9708 174.281 43.3279 174.951 43.7644C175.621 44.2008 176.133 44.7365 176.487 45.3912C176.842 46.0459 177.019 46.8593 177.019 47.8115C177.019 48.982 176.724 50.0136 176.113 50.8865C175.502 51.7594 174.577 52.434 173.316 52.9101C172.055 53.3862 170.44 53.6243 168.43 53.6243C167.012 53.6243 165.751 53.4656 164.648 53.168C163.565 52.8506 162.619 52.4538 161.831 51.9181C161.043 51.4023 160.393 50.827 159.9 50.212C159.408 49.597 159.053 48.982 158.837 48.3472C158.62 47.7322 158.541 47.1767 158.581 46.6807V46.6609Z" fill="#014F59"/>
<path d="M142.92 9.64165H116.325V13.0936H142.92V9.64165Z" fill="#014F59"/>
<path d="M142.92 26.3261H116.325V29.778H142.92V26.3261Z" fill="#014F59"/>
</svg>
