<svg width="73" height="72" viewBox="0 0 73 72" fill="none" xmlns="http://www.w3.org/2000/svg">
<path d="M36.0062 57C37.7862 57 39.5263 56.4722 41.0063 55.4832C42.4864 54.4943 43.6399 53.0887 44.3211 51.4442C45.0023 49.7996 45.1805 47.99 44.8333 46.2442C44.486 44.4984 43.6288 42.8947 42.3702 41.636C41.1115 40.3774 39.5078 39.5202 37.762 39.1729C36.0162 38.8257 34.2066 39.0039 32.562 39.6851C30.9175 40.3663 29.5119 41.5198 28.523 42.9999C27.534 44.4799 27.0062 46.22 27.0062 48C27.0062 50.3869 27.9544 52.6761 29.6422 54.364C31.3301 56.0518 33.6192 57 36.0062 57ZM36.0062 42C37.1929 42 38.3529 42.3519 39.3396 43.0112C40.3263 43.6705 41.0953 44.6075 41.5495 45.7039C42.0036 46.8003 42.1224 48.0067 41.8909 49.1705C41.6594 50.3344 41.0879 51.4035 40.2488 52.2426C39.4097 53.0818 38.3406 53.6532 37.1767 53.8847C36.0129 54.1162 34.8064 53.9974 33.7101 53.5433C32.6137 53.0892 31.6767 52.3201 31.0174 51.3334C30.3581 50.3467 30.0062 49.1867 30.0062 48C30.0062 46.4087 30.6383 44.8826 31.7636 43.7574C32.8888 42.6321 34.4149 42 36.0062 42ZM36.0062 49.5C36.3029 49.5 36.5929 49.412 36.8396 49.2472C37.0862 49.0824 37.2785 48.8481 37.392 48.574C37.5055 48.2999 37.5353 47.9983 37.4774 47.7074C37.4195 47.4164 37.2766 47.1491 37.0669 46.9393C36.8571 46.7296 36.5898 46.5867 36.2988 46.5288C36.0079 46.4709 35.7063 46.5006 35.4322 46.6142C35.1581 46.7277 34.9238 46.92 34.759 47.1666C34.5942 47.4133 34.5062 47.7033 34.5062 48C34.5062 48.3978 34.6642 48.7794 34.9455 49.0607C35.2268 49.342 35.6084 49.5 36.0062 49.5ZM64.5062 34.5C64.7347 34.5009 64.9605 34.4496 65.1662 34.35L71.1662 31.35C71.3566 31.2707 71.5286 31.153 71.6715 31.0042C71.8144 30.8554 71.925 30.6788 71.9965 30.4853C72.068 30.2918 72.0989 30.0857 72.0871 29.8797C72.0754 29.6738 72.0212 29.4725 71.9282 29.2884C71.8351 29.1044 71.7051 28.9415 71.5462 28.8099C71.3873 28.6784 71.203 28.581 71.0048 28.5239C70.8066 28.4668 70.5987 28.4512 70.3942 28.478C70.1897 28.5049 69.9929 28.5737 69.8162 28.68L63.8162 31.68C63.5101 31.8282 63.2635 32.076 63.1168 32.3828C62.9701 32.6896 62.932 33.0371 63.0087 33.3684C63.0854 33.6997 63.2724 33.9951 63.5391 34.2062C63.8057 34.4172 64.1361 34.5314 64.4762 34.53L64.5062 34.5ZM0.846193 31.35L6.84619 34.35C7.19583 34.4956 7.58761 34.5035 7.94286 34.3722C8.29812 34.2409 8.59055 33.9801 8.76144 33.6421C8.93234 33.3041 8.96905 32.914 8.8642 32.55C8.75936 32.1861 8.52072 31.8753 8.19619 31.68L2.19619 28.68C1.84655 28.5344 1.45478 28.5265 1.09952 28.6578C0.74427 28.7891 0.451839 29.0499 0.280942 29.3879C0.110045 29.7259 0.0733349 30.116 0.178181 30.48C0.283028 30.8439 0.521669 31.1547 0.846193 31.35ZM6.84619 43.68L0.846193 46.68C0.540136 46.8282 0.293526 47.076 0.146804 47.3828C8.09245e-05 47.6896 -0.0380462 48.0371 0.0386743 48.3684C0.115395 48.6997 0.302409 48.9951 0.569051 49.2062C0.835693 49.4172 1.16614 49.5314 1.50619 49.53C1.73487 49.532 1.96086 49.4807 2.16619 49.38L8.16619 46.38C8.35661 46.3007 8.52863 46.183 8.6715 46.0342C8.81437 45.8854 8.92502 45.7088 8.99653 45.5153C9.06804 45.3218 9.09888 45.1157 9.08712 44.9097C9.07536 44.7038 9.02125 44.5025 8.92818 44.3184C8.83511 44.1344 8.70507 43.9715 8.54619 43.8399C8.38731 43.7084 8.20301 43.611 8.0048 43.5539C7.80659 43.4968 7.59874 43.4812 7.39422 43.508C7.18971 43.5349 6.99293 43.6036 6.81619 43.71L6.84619 43.68ZM52.5062 66C52.8029 66 53.0929 65.912 53.3395 65.7472C53.5862 65.5824 53.7785 65.3481 53.892 65.074C54.0055 64.7999 54.0352 64.4983 53.9774 64.2074C53.9195 63.9164 53.7766 63.6491 53.5669 63.4393C53.3571 63.2296 53.0898 63.0867 52.7988 63.0288C52.5079 62.9709 52.2063 63.0007 51.9322 63.1142C51.6581 63.2277 51.4238 63.42 51.259 63.6666C51.0942 63.9133 51.0062 64.2033 51.0062 64.5C51.0062 64.8978 51.1642 65.2794 51.4455 65.5607C51.7268 65.842 52.1084 66 52.5062 66ZM7.50619 37.5H1.50619C1.10837 37.5 0.726837 37.658 0.445533 37.9393C0.164228 38.2206 0.00619299 38.6022 0.00619299 39C0.00619299 39.3978 0.164228 39.7794 0.445533 40.0607C0.726837 40.342 1.10837 40.5 1.50619 40.5H7.50619C7.90402 40.5 8.28555 40.342 8.56685 40.0607C8.84816 39.7794 9.00619 39.3978 9.00619 39C9.00619 38.6022 8.84816 38.2206 8.56685 37.9393C8.28555 37.658 7.90402 37.5 7.50619 37.5ZM64.5062 40.5H70.5062C70.904 40.5 71.2855 40.342 71.5668 40.0607C71.8482 39.7794 72.0062 39.3978 72.0062 39C72.0062 38.6022 71.8482 38.2206 71.5668 37.9393C71.2855 37.658 70.904 37.5 70.5062 37.5H64.5062C64.1084 37.5 63.7268 37.658 63.4455 37.9393C63.1642 38.2206 63.0062 38.6022 63.0062 39C63.0062 39.3978 63.1642 39.7794 63.4455 40.0607C63.7268 40.342 64.1084 40.5 64.5062 40.5ZM52.5062 0H19.5062C17.5171 0 15.6094 0.790176 14.2029 2.1967C12.7964 3.60322 12.0062 5.51088 12.0062 7.5V64.5C12.0062 65.4849 12.2002 66.4602 12.5771 67.3701C12.954 68.2801 13.5065 69.1069 14.2029 69.8033C14.8993 70.4997 15.7261 71.0522 16.6361 71.4291C17.546 71.806 18.5213 72 19.5062 72H52.5062C53.4911 72 54.4664 71.806 55.3763 71.4291C56.2863 71.0522 57.1131 70.4997 57.8095 69.8033C58.5059 69.1069 59.0584 68.2801 59.4353 67.3701C59.8122 66.4602 60.0062 65.4849 60.0062 64.5V7.5C60.0062 5.51088 59.216 3.60322 57.8095 2.1967C56.403 0.790176 54.4953 0 52.5062 0ZM57.0062 64.5C57.0062 65.6935 56.5321 66.8381 55.6882 67.682C54.8443 68.5259 53.6997 69 52.5062 69H19.5062C18.3127 69 17.1681 68.5259 16.3242 67.682C15.4803 66.8381 15.0062 65.6935 15.0062 64.5V30H57.0062V64.5ZM57.0062 27H15.0062V7.5C15.0062 6.30653 15.4803 5.16193 16.3242 4.31802C17.1681 3.47411 18.3127 3 19.5062 3H52.5062C53.6997 3 54.8443 3.47411 55.6882 4.31802C56.5321 5.16193 57.0062 6.30653 57.0062 7.5V27ZM52.5062 6C52.2095 6 51.9195 6.08797 51.6728 6.2528C51.4262 6.41762 51.2339 6.65189 51.1204 6.92597C51.0068 7.20006 50.9771 7.50166 51.035 7.79264C51.0929 8.08361 51.2358 8.35088 51.4455 8.56066C51.6553 8.77044 51.9226 8.9133 52.2136 8.97118C52.5045 9.02906 52.8061 8.99935 53.0802 8.88582C53.3543 8.77229 53.5886 8.58003 53.7534 8.33335C53.9182 8.08668 54.0062 7.79667 54.0062 7.5C54.0062 7.10218 53.8482 6.72064 53.5669 6.43934C53.2855 6.15804 52.904 6 52.5062 6ZM36.0062 63C38.9729 63 41.873 62.1203 44.3397 60.472C46.8065 58.8238 48.7291 56.4811 49.8644 53.7403C50.9997 50.9994 51.2967 47.9834 50.718 45.0736C50.1392 42.1639 48.7106 39.4912 46.6128 37.3934C44.515 35.2956 41.8423 33.867 38.9325 33.2882C36.0228 32.7094 33.0068 33.0065 30.2659 34.1418C27.5251 35.2771 25.1824 37.1997 23.5341 39.6664C21.8859 42.1332 21.0062 45.0333 21.0062 48C21.0062 51.9782 22.5865 55.7936 25.3996 58.6066C28.2126 61.4196 32.0279 63 36.0062 63ZM36.0062 36C38.3796 36 40.6996 36.7038 42.673 38.0224C44.6464 39.3409 46.1845 41.2151 47.0928 43.4078C48.001 45.6005 48.2386 48.0133 47.7756 50.3411C47.3126 52.6689 46.1697 54.807 44.4915 56.4853C42.8132 58.1635 40.675 59.3064 38.3473 59.7694C36.0195 60.2324 33.6067 59.9948 31.414 59.0866C29.2213 58.1783 27.3471 56.6402 26.0286 54.6668C24.71 52.6935 24.0062 50.3734 24.0062 48C24.0062 44.8174 25.2705 41.7652 27.5209 39.5147C29.7713 37.2643 32.8236 36 36.0062 36ZM71.1662 46.65L65.1662 43.65C64.8166 43.5044 64.4248 43.4965 64.0695 43.6278C63.7143 43.7591 63.4218 44.0199 63.2509 44.3579C63.08 44.6959 63.0433 45.086 63.1482 45.45C63.253 45.8139 63.4917 46.1247 63.8162 46.32L69.8162 49.32C70.0215 49.4207 70.2475 49.472 70.4762 49.47C70.8162 49.4714 71.1467 49.3572 71.4133 49.1462C71.68 48.9351 71.867 48.6397 71.9437 48.3084C72.0204 47.9771 71.9823 47.6296 71.8356 47.3228C71.6889 47.016 71.4422 46.7682 71.1362 46.62L71.1662 46.65ZM19.5062 6C19.2095 6 18.9195 6.08797 18.6728 6.2528C18.4262 6.41762 18.2339 6.65189 18.1204 6.92597C18.0068 7.20006 17.9771 7.50166 18.035 7.79264C18.0929 8.08361 18.2358 8.35088 18.4455 8.56066C18.6553 8.77044 18.9226 8.9133 19.2136 8.97118C19.5045 9.02906 19.8061 8.99935 20.0802 8.88582C20.3543 8.77229 20.5886 8.58003 20.7534 8.33335C20.9182 8.08668 21.0062 7.79667 21.0062 7.5C21.0062 7.10218 20.8482 6.72064 20.5669 6.43934C20.2855 6.15804 19.904 6 19.5062 6ZM19.5062 66C19.8029 66 20.0929 65.912 20.3395 65.7472C20.5862 65.5824 20.7785 65.3481 20.892 65.074C21.0055 64.7999 21.0352 64.4983 20.9774 64.2074C20.9195 63.9164 20.7766 63.6491 20.5669 63.4393C20.3571 63.2296 20.0898 63.0867 19.7988 63.0288C19.5079 62.9709 19.2063 63.0007 18.9322 63.1142C18.6581 63.2277 18.4238 63.42 18.259 63.6666C18.0942 63.9133 18.0062 64.2033 18.0062 64.5C18.0062 64.8978 18.1642 65.2794 18.4455 65.5607C18.7268 65.842 19.1084 66 19.5062 66ZM36.0062 13.5C35.7095 13.5 35.4195 13.588 35.1728 13.7528C34.9262 13.9176 34.7339 14.1519 34.6204 14.426C34.5068 14.7001 34.4771 15.0017 34.535 15.2926C34.5929 15.5836 34.7358 15.8509 34.9455 16.0607C35.1553 16.2704 35.4226 16.4133 35.7136 16.4712C36.0045 16.5291 36.3061 16.4994 36.5802 16.3858C36.8543 16.2723 37.0886 16.08 37.2534 15.8334C37.4182 15.5867 37.5062 15.2967 37.5062 15C37.5062 14.6022 37.3482 14.2206 37.0669 13.9393C36.7855 13.658 36.404 13.5 36.0062 13.5ZM36.0062 6C34.2262 6 32.4861 6.52784 31.0061 7.51677C29.526 8.50571 28.3725 9.91131 27.6913 11.5558C27.0101 13.2004 26.8319 15.01 27.1791 16.7558C27.5264 18.5016 28.3836 20.1053 29.6422 21.364C30.9009 22.6226 32.5046 23.4798 34.2504 23.8271C35.9962 24.1743 37.8058 23.9961 39.4503 23.3149C41.0949 22.6337 42.5005 21.4802 43.4894 20.0001C44.4784 18.5201 45.0062 16.78 45.0062 15C45.0062 12.6131 44.058 10.3239 42.3702 8.63604C40.6823 6.94821 38.3931 6 36.0062 6ZM36.0062 21C34.8195 21 33.6595 20.6481 32.6728 19.9888C31.6861 19.3295 30.917 18.3925 30.4629 17.2961C30.0088 16.1997 29.89 14.9933 30.1215 13.8295C30.353 12.6656 30.9244 11.5965 31.7636 10.7574C32.6027 9.91824 33.6718 9.3468 34.8357 9.11529C35.9995 8.88378 37.2059 9.0026 38.3023 9.45672C39.3987 9.91085 40.3357 10.6799 40.995 11.6666C41.6543 12.6533 42.0062 13.8133 42.0062 15C42.0062 16.5913 41.3741 18.1174 40.2488 19.2426C39.1236 20.3679 37.5975 21 36.0062 21Z" fill="#FFFCEE"/>
</svg>
