<svg width="93" height="50" viewBox="0 0 93 50" fill="none" xmlns="http://www.w3.org/2000/svg">
<path d="M25.9165 13.9172L14.3633 15.9988C14.9631 17.7395 16.6468 19.0224 18.6142 19.0224C21.1814 19.0224 23.0919 17.1968 23.5205 15.971L25.8302 16.7404C25.3168 18.1096 22.9778 21.5033 18.6142 21.5033C15.5906 21.4755 12.6519 19.4788 11.625 16.4844C11.3675 15.7428 11.2549 14.9441 11.2549 14.1454C11.2549 10.0671 14.5345 6.78609 18.6142 6.75684C22.4365 6.78609 25.6313 9.75119 25.9165 13.5179C25.9165 13.689 25.9443 13.8031 25.9165 13.9172ZM22.8344 12.2906C22.1498 10.4372 20.2964 9.1529 18.2997 9.20995C16.0748 9.29479 14.2214 11.0926 14.0225 13.3175C14.0225 13.4023 14.0225 13.6027 13.9932 13.8602L22.8359 12.2906H22.8344Z" fill="#1E1E1E"/>
<path d="M28.905 0H31.6141V21.4183H28.905V0Z" fill="#1E1E1E"/>
<path d="M34.2368 14.1162C34.2368 10.0657 37.5164 6.75684 41.5962 6.75684C45.6759 6.75684 48.954 10.0657 48.954 14.1162C48.954 18.1667 45.6452 21.4741 41.5962 21.4741C37.5471 21.4741 34.2368 18.1652 34.2368 14.1162ZM46.3298 14.1162C46.3298 11.3778 44.3053 9.29625 41.681 9.29625C39.0567 9.29625 37.0308 11.3778 37.0308 14.1162C37.0308 16.8545 39.0275 18.9068 41.681 18.9068C44.3345 18.9068 46.3298 16.8531 46.3298 14.1162Z" fill="#1E1E1E"/>
<path d="M63.5527 8.31179L55.1679 18.7796H63.5527V21.4185H50.9463V19.865L59.3033 9.39573H50.9463V6.75684H63.5527V8.31179Z" fill="#1E1E1E"/>
<path d="M0.029256 40.7008L1.83581 39.1327C1.83581 39.1327 3.58386 40.8734 5.99309 40.8734C7.7148 40.8734 8.91868 40.2459 8.91868 39.1034C8.91868 36.9078 0 37.3641 0 32.7154C0 30.3471 1.80656 28.5508 5.50597 28.5508C9.20539 28.5508 11.442 31.0902 11.442 31.0902L9.63546 32.6861C9.63546 32.6861 7.88595 30.9468 5.47672 30.9468C3.75647 30.9468 2.55112 31.5744 2.55112 32.7154C2.55112 34.911 11.4713 34.4561 11.4713 39.1034C11.4713 41.4717 9.66471 43.268 5.93604 43.268C2.20736 43.268 0.029256 40.7008 0.029256 40.7008Z" fill="#1E1E1E"/>
<path d="M29.4212 35.8811C29.4212 39.9316 26.1226 43.2404 22.0224 43.2404C20.1588 43.2404 18.4663 42.5558 17.1761 41.4426V50H14.4524V28.551H17.1761V30.3195C18.4678 29.2078 20.1588 28.5217 22.0224 28.5217C26.1241 28.5217 29.4212 31.8306 29.4212 35.8811ZM26.639 35.8811C26.639 33.1427 24.6028 31.0611 21.9361 31.0611C19.2694 31.0611 17.261 33.1442 17.261 35.8811C17.261 38.618 19.2972 40.6732 21.9361 40.6732C24.575 40.6732 26.639 38.6194 26.639 35.8811Z" fill="#1E1E1E"/>
<path d="M46.2801 28.5217V43.2682H43.5564V41.4719C42.2647 42.5836 40.5737 43.2682 38.7101 43.2682C34.6084 43.2682 31.3113 39.9594 31.3113 35.9103C31.3113 31.8613 34.6099 28.551 38.7101 28.551C40.5737 28.551 42.2662 29.2356 43.5564 30.3473V28.5217H46.2801ZM43.4408 35.9103C43.4408 33.172 41.4338 31.1182 38.7657 31.1182C36.0976 31.1182 34.0921 33.172 34.0921 35.9103C34.0921 38.6487 36.1268 40.701 38.7657 40.701C41.4046 40.701 43.4408 38.6472 43.4408 35.9103Z" fill="#1E1E1E"/>
<path d="M48.8838 35.9101C48.8838 31.8596 52.1824 28.5508 56.2826 28.5508C58.9771 28.5508 61.3293 30.0063 62.6195 32.1727L60.1824 33.3414C59.2638 32.0015 57.801 31.1165 56.2826 31.1165C53.6145 31.1165 51.6075 33.1703 51.6075 35.9087C51.6075 38.647 53.6145 40.6993 56.2826 40.6993C57.8025 40.6993 59.2638 39.8158 60.1824 38.4744L62.6195 39.6432C61.3278 41.8096 58.9771 43.2651 56.2826 43.2651C52.1809 43.2651 48.8838 39.9562 48.8838 35.9072V35.9101Z" fill="#1E1E1E"/>
<path d="M79.0773 35.6965L67.4612 37.7781C68.0639 39.5188 69.7563 40.8017 71.7355 40.8017C74.3159 40.8017 76.238 38.9761 76.6681 37.7503L78.991 38.5197C78.4746 39.8889 76.1239 43.2826 71.737 43.2826C68.6958 43.2548 65.7424 41.2581 64.7097 38.2637C64.4508 37.5221 64.3367 36.7234 64.3367 35.9247C64.3367 31.8464 67.6353 28.5654 71.7355 28.5361C75.5783 28.5654 78.7906 31.5305 79.0773 35.2972C79.0773 35.4683 79.1051 35.5824 79.0773 35.6965ZM75.9791 34.0699C75.2916 32.2165 73.428 30.9322 71.4195 30.9892C69.1829 31.0741 67.3179 32.8719 67.1189 35.0968C67.1189 35.1816 67.1189 35.382 67.0897 35.6395L75.9805 34.0699H75.9791Z" fill="#1E1E1E"/>
<path d="M80.8488 40.7008L82.6554 39.1327C82.6554 39.1327 84.4034 40.8734 86.8127 40.8734C88.5344 40.8734 89.7383 40.2459 89.7383 39.1034C89.7383 36.9078 80.8196 37.3641 80.8196 32.7154C80.8196 30.3471 82.6261 28.5508 86.3256 28.5508C90.025 28.5508 92.2616 31.0902 92.2616 31.0902L90.455 32.6861C90.455 32.6861 88.7055 30.9468 86.2963 30.9468C84.576 30.9468 83.3707 31.5744 83.3707 32.7154C83.3707 34.911 92.2908 34.4561 92.2908 39.1034C92.2908 41.4717 90.4843 43.268 86.7556 43.268C83.0269 43.268 80.8488 40.7008 80.8488 40.7008Z" fill="#1E1E1E"/>
<path d="M92.2585 7.53195V0L89.4236 0V7.53195H92.2585Z" fill="#FF5D22"/>
<path d="M84.7266 2.83496L92.2585 2.83496V5.67436e-05L84.7266 5.67436e-05V2.83496Z" fill="#FF5D22"/>
<path d="M5.54126 2.33902V0H14.83V2.8349H8.32204V21.4183H5.54126V2.33902Z" fill="#FF5D22"/>
<path d="M2.34048 0H0.00146484V2.8349H2.34048V0Z" fill="#1E1E1E"/>
</svg>
